# xmcd CD database file
#
# Track frame offsets:
#	150
#	19950
#	41175
#	54525
#	67725
#	90450
#	111825
#	130125
#	155550
#	168600
#	180675
#	197400
#	211875
#	233325
#	247650
#	258600
#	285825
#	305775
#
# Disc length: 4416 seconds
#
# Revision: 0
# Processed by: cddbd v1.5.2PL0 Copyright (c) Steve Scherf et al.
# Submitted via: CDex 1.70beta2
#
DISCID=f0113e12
DTITLE=Various Artist - Idstein Jazz Festival 2007
DYEAR=2007
DGENRE=Jazz
TTITLE0=Papa's Finest Boogie Band  - Baby 4 2 Nite 
TTITLE1=Leather Town Jazz Band - Blues in the Hoos Flat
TTITLE2=FrauContraBass - Your Song
TTITLE3=Coming Up - Watermelon Man
TTITLE4=Peter Petrel - Stew Ball
TTITLE5=Sven Claussen Trio - My Little Boat
TTITLE6=Java Five - Rocking Chair
TTITLE7=Trio Jeep - Jeep on 35
TTITLE8=Memories of Satchmo - Cabaret
TTITLE9=Lady and Gentleman - On the Sunny Side of the Street
TTITLE10=Bossa Nova Hotel - Onda de Calor
TTITLE11=Die Schoppeschlepper - Hallo gibt's hier noch en Handkäs
TTITLE12=Sloppy Notes - Keeping out of Mischief now
TTITLE13=Der Hausfreund - Mäckie-Boogie
TTITLE14=Jazz Orchester Bruchsal - Don't get around much anymore
TTITLE15=The Hip - Lover Man
TTITLE16=Dora Michel and Claudia Zinserling - A Piece of Sky
TTITLE17=The Organizer feat. Jochen Brauer - Jive Samba
EXTD=YEAR: 2007
EXTT0=
EXTT1=
EXTT2=
EXTT3=
EXTT4=
EXTT5=
EXTT6=
EXTT7=
EXTT8=
EXTT9=
EXTT10=
EXTT11=
EXTT12=
EXTT13=
EXTT14=
EXTT15=
EXTT16=
EXTT17=
PLAYORDER=
